<mxfile host="app.diagrams.net" modified="2023-06-13T14:07:49.462Z" agent="Mozilla/5.0 (Macintosh; Intel Mac OS X 10_15_7) AppleWebKit/605.1.15 (KHTML, like Gecko) Version/15.6.1 Safari/605.1.15" version="21.3.8" etag="yAnSdAfDY1chEJwzYml0" type="github">
  <diagram name="Page-1" id="WjMBkJJPQpSqSkIfeY3f">
    <mxGraphModel>
      <root>
        <mxCell id="0" />
        <mxCell id="1" parent="0" />
      </root>
    </mxGraphModel>
  </diagram>
</mxfile>
